<mxfile host="app.diagrams.net" agent="Mozilla/5.0 (Windows NT 10.0; Win64; x64) AppleWebKit/537.36 (KHTML, like Gecko) Chrome/132.0.0.0 Safari/537.36" version="26.0.14" pages="2">
  <diagram id="prtHgNgQTEPvFCAcTncT" name="Page-1">
    <mxGraphModel dx="1444" dy="4403" grid="1" gridSize="10" guides="1" tooltips="1" connect="1" arrows="1" fold="1" page="1" pageScale="1" pageWidth="827" pageHeight="1169" math="0" shadow="0">
      <root>
        <mxCell id="0" />
        <mxCell id="1" parent="0" />
        <mxCell id="jIQ_TxtXl38ZR4wvXbJK-1" value="Proses Penyewaan Peralatan di BuildIT&amp;nbsp;" style="swimlane;html=1;childLayout=stackLayout;resizeParent=1;resizeParentMax=0;startSize=20;whiteSpace=wrap;gradientColor=none;" parent="1" vertex="1">
          <mxGeometry x="11" y="-3494" width="800" height="1070" as="geometry">
            <mxRectangle x="234" y="-3440" width="260" height="30" as="alternateBounds" />
          </mxGeometry>
        </mxCell>
        <mxCell id="jIQ_TxtXl38ZR4wvXbJK-2" value="Site Engineer" style="swimlane;html=1;startSize=20;labelBorderColor=none;labelBackgroundColor=none;textShadow=0;fontColor=default;" parent="jIQ_TxtXl38ZR4wvXbJK-1" vertex="1">
          <mxGeometry y="20" width="160" height="1050" as="geometry">
            <mxRectangle y="20" width="40" height="460" as="alternateBounds" />
          </mxGeometry>
        </mxCell>
        <mxCell id="stpsXEzvuc9ygyJErnF_-3" style="edgeStyle=orthogonalEdgeStyle;rounded=0;orthogonalLoop=1;jettySize=auto;html=1;exitX=0.5;exitY=1;exitDx=0;exitDy=0;entryX=0.5;entryY=0;entryDx=0;entryDy=0;" edge="1" parent="jIQ_TxtXl38ZR4wvXbJK-2" source="stpsXEzvuc9ygyJErnF_-1" target="stpsXEzvuc9ygyJErnF_-2">
          <mxGeometry relative="1" as="geometry" />
        </mxCell>
        <mxCell id="stpsXEzvuc9ygyJErnF_-1" value="Mengisi formulir Equipmental Rental Request" style="rounded=1;whiteSpace=wrap;html=1;arcSize=50;fontSize=11;" vertex="1" parent="jIQ_TxtXl38ZR4wvXbJK-2">
          <mxGeometry x="4" y="50" width="132" height="50" as="geometry" />
        </mxCell>
        <mxCell id="stpsXEzvuc9ygyJErnF_-83" value="" style="edgeStyle=orthogonalEdgeStyle;rounded=0;orthogonalLoop=1;jettySize=auto;html=1;" edge="1" parent="jIQ_TxtXl38ZR4wvXbJK-2" source="stpsXEzvuc9ygyJErnF_-2" target="stpsXEzvuc9ygyJErnF_-82">
          <mxGeometry relative="1" as="geometry" />
        </mxCell>
        <mxCell id="stpsXEzvuc9ygyJErnF_-2" value="Mengirimkan formulir ke petugas depot melalui email" style="rounded=0;whiteSpace=wrap;html=1;fontSize=11;" vertex="1" parent="jIQ_TxtXl38ZR4wvXbJK-2">
          <mxGeometry x="11" y="118" width="120" height="50" as="geometry" />
        </mxCell>
        <mxCell id="stpsXEzvuc9ygyJErnF_-100" value="" style="edgeStyle=orthogonalEdgeStyle;rounded=0;orthogonalLoop=1;jettySize=auto;html=1;" edge="1" parent="jIQ_TxtXl38ZR4wvXbJK-2" source="stpsXEzvuc9ygyJErnF_-82" target="stpsXEzvuc9ygyJErnF_-99">
          <mxGeometry relative="1" as="geometry" />
        </mxCell>
        <mxCell id="UYdj0tRyOLPpEsMP7eCE-9" style="edgeStyle=orthogonalEdgeStyle;rounded=0;orthogonalLoop=1;jettySize=auto;html=1;exitX=1;exitY=0.5;exitDx=0;exitDy=0;" edge="1" parent="jIQ_TxtXl38ZR4wvXbJK-2" source="stpsXEzvuc9ygyJErnF_-82" target="UYdj0tRyOLPpEsMP7eCE-7">
          <mxGeometry relative="1" as="geometry">
            <Array as="points">
              <mxPoint x="149" y="250" />
              <mxPoint x="149" y="451" />
              <mxPoint x="70" y="451" />
            </Array>
          </mxGeometry>
        </mxCell>
        <mxCell id="stpsXEzvuc9ygyJErnF_-82" value="Ingin membatalkan permintaan?" style="rhombus;whiteSpace=wrap;html=1;fontSize=11;" vertex="1" parent="jIQ_TxtXl38ZR4wvXbJK-2">
          <mxGeometry x="13.5" y="208" width="115" height="83" as="geometry" />
        </mxCell>
        <mxCell id="UYdj0tRyOLPpEsMP7eCE-6" value="" style="edgeStyle=orthogonalEdgeStyle;rounded=0;orthogonalLoop=1;jettySize=auto;html=1;" edge="1" parent="jIQ_TxtXl38ZR4wvXbJK-2" source="stpsXEzvuc9ygyJErnF_-99" target="UYdj0tRyOLPpEsMP7eCE-5">
          <mxGeometry relative="1" as="geometry" />
        </mxCell>
        <mxCell id="stpsXEzvuc9ygyJErnF_-99" value="Mengabari permintaan pembatalan ke petugas depot" style="rounded=0;whiteSpace=wrap;html=1;fontSize=11;" vertex="1" parent="jIQ_TxtXl38ZR4wvXbJK-2">
          <mxGeometry x="11" y="315" width="120" height="50" as="geometry" />
        </mxCell>
        <mxCell id="UYdj0tRyOLPpEsMP7eCE-5" value="1" style="ellipse;whiteSpace=wrap;html=1;aspect=fixed;" vertex="1" parent="jIQ_TxtXl38ZR4wvXbJK-2">
          <mxGeometry x="56" y="398" width="31" height="31" as="geometry" />
        </mxCell>
        <mxCell id="UYdj0tRyOLPpEsMP7eCE-7" value="Menunggu konfirmasi petugas depot" style="rounded=0;whiteSpace=wrap;html=1;fontSize=11;" vertex="1" parent="jIQ_TxtXl38ZR4wvXbJK-2">
          <mxGeometry x="12" y="474" width="120" height="50" as="geometry" />
        </mxCell>
        <mxCell id="UYdj0tRyOLPpEsMP7eCE-10" value="Ya" style="text;html=1;align=center;verticalAlign=middle;whiteSpace=wrap;rounded=0;" vertex="1" parent="jIQ_TxtXl38ZR4wvXbJK-2">
          <mxGeometry x="19" y="285" width="60" height="30" as="geometry" />
        </mxCell>
        <mxCell id="UYdj0tRyOLPpEsMP7eCE-11" value="Tidak" style="text;html=1;align=center;verticalAlign=middle;whiteSpace=wrap;rounded=0;" vertex="1" parent="jIQ_TxtXl38ZR4wvXbJK-2">
          <mxGeometry x="100" y="255" width="60" height="30" as="geometry" />
        </mxCell>
        <mxCell id="jIQ_TxtXl38ZR4wvXbJK-3" value="Petugas Depot" style="swimlane;html=1;startSize=20;fontSize=11;" parent="jIQ_TxtXl38ZR4wvXbJK-1" vertex="1">
          <mxGeometry x="160" y="20" width="180" height="1050" as="geometry">
            <mxRectangle x="120" y="20" width="40" height="460" as="alternateBounds" />
          </mxGeometry>
        </mxCell>
        <mxCell id="stpsXEzvuc9ygyJErnF_-7" style="edgeStyle=orthogonalEdgeStyle;rounded=0;orthogonalLoop=1;jettySize=auto;html=1;exitX=0.5;exitY=1;exitDx=0;exitDy=0;" edge="1" parent="jIQ_TxtXl38ZR4wvXbJK-3" source="stpsXEzvuc9ygyJErnF_-5" target="stpsXEzvuc9ygyJErnF_-6">
          <mxGeometry relative="1" as="geometry" />
        </mxCell>
        <mxCell id="stpsXEzvuc9ygyJErnF_-5" value="Memeriksa katalog pemasok &lt;span style=&quot;color: rgba(0, 0, 0, 0); font-family: monospace; font-size: 0px; text-align: start; text-wrap-mode: nowrap;&quot;&gt;%3CmxGraphModel%3E%3Croot%3E%3CmxCell%20id%3D%220%22%2F%3E%3CmxCell%20id%3D%221%22%20parent%3D%220%22%2F%3E%3CmxCell%20id%3D%222%22%20value%3D%22Mengirimkan%20formulir%20ke%20petugas%20depot%20melalui%20email%22%20style%3D%22rounded%3D0%3BwhiteSpace%3Dwrap%3Bhtml%3D1%3BfontSize%3D11%3B%22%20vertex%3D%221%22%20parent%3D%221%22%3E%3CmxGeometry%20x%3D%2294%22%20y%3D%22-3337%22%20width%3D%22120%22%20height%3D%2250%22%20as%3D%22geometry%22%2F%3E%3C%2FmxCell%3E%3C%2Froot%3E%3C&lt;/span&gt;" style="rounded=0;whiteSpace=wrap;html=1;fontSize=11;" vertex="1" parent="jIQ_TxtXl38ZR4wvXbJK-3">
          <mxGeometry x="44" y="127" width="120" height="64" as="geometry" />
        </mxCell>
        <mxCell id="stpsXEzvuc9ygyJErnF_-6" value="Memverifikasi ketersediaan dengan pemasok melalui telepon/email" style="rounded=0;whiteSpace=wrap;html=1;fontSize=11;" vertex="1" parent="jIQ_TxtXl38ZR4wvXbJK-3">
          <mxGeometry x="44" y="219" width="120" height="61" as="geometry" />
        </mxCell>
        <mxCell id="stpsXEzvuc9ygyJErnF_-25" value="" style="edgeStyle=orthogonalEdgeStyle;rounded=0;orthogonalLoop=1;jettySize=auto;html=1;" edge="1" parent="jIQ_TxtXl38ZR4wvXbJK-3" source="stpsXEzvuc9ygyJErnF_-16" target="stpsXEzvuc9ygyJErnF_-24">
          <mxGeometry relative="1" as="geometry" />
        </mxCell>
        <mxCell id="stpsXEzvuc9ygyJErnF_-67" style="edgeStyle=orthogonalEdgeStyle;rounded=0;orthogonalLoop=1;jettySize=auto;html=1;exitX=0;exitY=0.5;exitDx=0;exitDy=0;entryX=0;entryY=0.75;entryDx=0;entryDy=0;" edge="1" parent="jIQ_TxtXl38ZR4wvXbJK-3" source="stpsXEzvuc9ygyJErnF_-16" target="stpsXEzvuc9ygyJErnF_-5">
          <mxGeometry relative="1" as="geometry">
            <Array as="points">
              <mxPoint x="30" y="332" />
              <mxPoint x="30" y="175" />
            </Array>
          </mxGeometry>
        </mxCell>
        <mxCell id="stpsXEzvuc9ygyJErnF_-16" value="Peralatan tersedia?" style="rhombus;whiteSpace=wrap;html=1;fontSize=11;" vertex="1" parent="jIQ_TxtXl38ZR4wvXbJK-3">
          <mxGeometry x="44" y="299" width="115" height="66" as="geometry" />
        </mxCell>
        <mxCell id="stpsXEzvuc9ygyJErnF_-22" value="Tidak" style="text;html=1;align=center;verticalAlign=middle;whiteSpace=wrap;rounded=0;" vertex="1" parent="jIQ_TxtXl38ZR4wvXbJK-3">
          <mxGeometry x="13" y="335" width="60" height="30" as="geometry" />
        </mxCell>
        <mxCell id="stpsXEzvuc9ygyJErnF_-24" value="Menambahkan detail peralatan ke formulir permintaan sewa" style="rounded=0;whiteSpace=wrap;html=1;fontSize=11;" vertex="1" parent="jIQ_TxtXl38ZR4wvXbJK-3">
          <mxGeometry x="41" y="411" width="120" height="50" as="geometry" />
        </mxCell>
        <mxCell id="stpsXEzvuc9ygyJErnF_-26" value="Ya" style="text;html=1;align=center;verticalAlign=middle;whiteSpace=wrap;rounded=0;" vertex="1" parent="jIQ_TxtXl38ZR4wvXbJK-3">
          <mxGeometry x="84" y="365" width="60" height="30" as="geometry" />
        </mxCell>
        <mxCell id="stpsXEzvuc9ygyJErnF_-72" style="edgeStyle=orthogonalEdgeStyle;rounded=0;orthogonalLoop=1;jettySize=auto;html=1;exitX=0;exitY=0.5;exitDx=0;exitDy=0;entryX=0;entryY=0.5;entryDx=0;entryDy=0;" edge="1" parent="jIQ_TxtXl38ZR4wvXbJK-3" source="stpsXEzvuc9ygyJErnF_-60" target="stpsXEzvuc9ygyJErnF_-5">
          <mxGeometry relative="1" as="geometry">
            <Array as="points">
              <mxPoint x="20" y="598" />
              <mxPoint x="20" y="159" />
            </Array>
          </mxGeometry>
        </mxCell>
        <mxCell id="stpsXEzvuc9ygyJErnF_-60" value="Merevisi permintaan dengan mengganti peralatan yang dipilih" style="rounded=0;whiteSpace=wrap;html=1;fontSize=11;" vertex="1" parent="jIQ_TxtXl38ZR4wvXbJK-3">
          <mxGeometry x="40" y="573" width="120" height="50" as="geometry" />
        </mxCell>
        <mxCell id="stpsXEzvuc9ygyJErnF_-79" value="Mengirimkan Konfirmasi dan PO ke pemasok" style="rounded=0;whiteSpace=wrap;html=1;fontSize=11;" vertex="1" parent="jIQ_TxtXl38ZR4wvXbJK-3">
          <mxGeometry x="36" y="746" width="120" height="50" as="geometry" />
        </mxCell>
        <mxCell id="jIQ_TxtXl38ZR4wvXbJK-4" value="Works Engineer" style="swimlane;html=1;startSize=20;" parent="jIQ_TxtXl38ZR4wvXbJK-1" vertex="1">
          <mxGeometry x="340" y="20" width="170" height="1050" as="geometry">
            <mxRectangle x="160" y="20" width="40" height="460" as="alternateBounds" />
          </mxGeometry>
        </mxCell>
        <mxCell id="stpsXEzvuc9ygyJErnF_-54" value="" style="edgeStyle=orthogonalEdgeStyle;rounded=0;orthogonalLoop=1;jettySize=auto;html=1;" edge="1" parent="jIQ_TxtXl38ZR4wvXbJK-4" source="stpsXEzvuc9ygyJErnF_-51" target="stpsXEzvuc9ygyJErnF_-53">
          <mxGeometry relative="1" as="geometry" />
        </mxCell>
        <mxCell id="stpsXEzvuc9ygyJErnF_-51" value="Menerima formulir permintaan sewa" style="rounded=0;whiteSpace=wrap;html=1;fontSize=11;" vertex="1" parent="jIQ_TxtXl38ZR4wvXbJK-4">
          <mxGeometry x="16" y="411" width="120" height="50" as="geometry" />
        </mxCell>
        <mxCell id="stpsXEzvuc9ygyJErnF_-56" value="" style="edgeStyle=orthogonalEdgeStyle;rounded=0;orthogonalLoop=1;jettySize=auto;html=1;" edge="1" parent="jIQ_TxtXl38ZR4wvXbJK-4" source="stpsXEzvuc9ygyJErnF_-53" target="stpsXEzvuc9ygyJErnF_-55">
          <mxGeometry relative="1" as="geometry" />
        </mxCell>
        <mxCell id="stpsXEzvuc9ygyJErnF_-75" style="edgeStyle=orthogonalEdgeStyle;rounded=0;orthogonalLoop=1;jettySize=auto;html=1;exitX=1;exitY=0.5;exitDx=0;exitDy=0;" edge="1" parent="jIQ_TxtXl38ZR4wvXbJK-4" source="stpsXEzvuc9ygyJErnF_-53" target="stpsXEzvuc9ygyJErnF_-74">
          <mxGeometry relative="1" as="geometry">
            <Array as="points">
              <mxPoint x="154" y="515" />
              <mxPoint x="154" y="731" />
              <mxPoint x="76" y="731" />
            </Array>
          </mxGeometry>
        </mxCell>
        <mxCell id="stpsXEzvuc9ygyJErnF_-53" value="Permintaan&amp;nbsp;&lt;div&gt;disetujui?&lt;/div&gt;" style="rhombus;whiteSpace=wrap;html=1;fontSize=11;" vertex="1" parent="jIQ_TxtXl38ZR4wvXbJK-4">
          <mxGeometry x="19" y="489" width="115" height="51" as="geometry" />
        </mxCell>
        <mxCell id="stpsXEzvuc9ygyJErnF_-59" value="" style="edgeStyle=orthogonalEdgeStyle;rounded=0;orthogonalLoop=1;jettySize=auto;html=1;" edge="1" parent="jIQ_TxtXl38ZR4wvXbJK-4" source="stpsXEzvuc9ygyJErnF_-55" target="stpsXEzvuc9ygyJErnF_-58">
          <mxGeometry relative="1" as="geometry" />
        </mxCell>
        <mxCell id="stpsXEzvuc9ygyJErnF_-55" value="Batalkan&amp;nbsp;&lt;div&gt;permintaan?&lt;/div&gt;" style="rhombus;whiteSpace=wrap;html=1;fontSize=11;" vertex="1" parent="jIQ_TxtXl38ZR4wvXbJK-4">
          <mxGeometry x="18.5" y="568" width="115" height="59" as="geometry" />
        </mxCell>
        <mxCell id="stpsXEzvuc9ygyJErnF_-58" value="Membatalkan permintaan sewa" style="rounded=1;whiteSpace=wrap;html=1;arcSize=50;fontSize=11;" vertex="1" parent="jIQ_TxtXl38ZR4wvXbJK-4">
          <mxGeometry x="10" y="669" width="132" height="37" as="geometry" />
        </mxCell>
        <mxCell id="stpsXEzvuc9ygyJErnF_-61" value="Ya" style="text;html=1;align=center;verticalAlign=middle;whiteSpace=wrap;rounded=0;" vertex="1" parent="jIQ_TxtXl38ZR4wvXbJK-4">
          <mxGeometry x="62" y="631" width="60" height="30" as="geometry" />
        </mxCell>
        <mxCell id="stpsXEzvuc9ygyJErnF_-63" value="Tidak" style="text;html=1;align=center;verticalAlign=middle;whiteSpace=wrap;rounded=0;" vertex="1" parent="jIQ_TxtXl38ZR4wvXbJK-4">
          <mxGeometry x="-8" y="605" width="60" height="30" as="geometry" />
        </mxCell>
        <mxCell id="stpsXEzvuc9ygyJErnF_-73" value="Tidak" style="text;html=1;align=center;verticalAlign=middle;whiteSpace=wrap;rounded=0;" vertex="1" parent="jIQ_TxtXl38ZR4wvXbJK-4">
          <mxGeometry x="21" y="536" width="60" height="30" as="geometry" />
        </mxCell>
        <mxCell id="stpsXEzvuc9ygyJErnF_-74" value="Menyetujui permintaan sewa" style="rounded=0;whiteSpace=wrap;html=1;fontSize=11;" vertex="1" parent="jIQ_TxtXl38ZR4wvXbJK-4">
          <mxGeometry x="16.5" y="751" width="120" height="39" as="geometry" />
        </mxCell>
        <mxCell id="stpsXEzvuc9ygyJErnF_-76" value="Ya" style="text;html=1;align=center;verticalAlign=middle;whiteSpace=wrap;rounded=0;" vertex="1" parent="jIQ_TxtXl38ZR4wvXbJK-4">
          <mxGeometry x="105" y="518" width="60" height="30" as="geometry" />
        </mxCell>
        <mxCell id="jIQ_TxtXl38ZR4wvXbJK-7" value="Pemasok" style="swimlane;html=1;startSize=20;" parent="jIQ_TxtXl38ZR4wvXbJK-1" vertex="1">
          <mxGeometry x="510" y="20" width="150" height="1050" as="geometry">
            <mxRectangle x="160" y="20" width="40" height="460" as="alternateBounds" />
          </mxGeometry>
        </mxCell>
        <mxCell id="stpsXEzvuc9ygyJErnF_-15" value="" style="edgeStyle=orthogonalEdgeStyle;rounded=0;orthogonalLoop=1;jettySize=auto;html=1;" edge="1" parent="jIQ_TxtXl38ZR4wvXbJK-7" source="stpsXEzvuc9ygyJErnF_-8" target="stpsXEzvuc9ygyJErnF_-14">
          <mxGeometry relative="1" as="geometry" />
        </mxCell>
        <mxCell id="stpsXEzvuc9ygyJErnF_-8" value="Mengecek ketersediaan peralatan" style="rounded=0;whiteSpace=wrap;html=1;fontSize=11;" vertex="1" parent="jIQ_TxtXl38ZR4wvXbJK-7">
          <mxGeometry x="16" y="224.5" width="120" height="50" as="geometry" />
        </mxCell>
        <mxCell id="stpsXEzvuc9ygyJErnF_-14" value="Mengabari status peralatan ke petugas depot" style="rounded=0;whiteSpace=wrap;html=1;fontSize=11;" vertex="1" parent="jIQ_TxtXl38ZR4wvXbJK-7">
          <mxGeometry x="16" y="307" width="120" height="49" as="geometry" />
        </mxCell>
        <mxCell id="jIQ_TxtXl38ZR4wvXbJK-6" value="Dept. Keuangan" style="swimlane;html=1;startSize=20;" parent="jIQ_TxtXl38ZR4wvXbJK-1" vertex="1">
          <mxGeometry x="660" y="20" width="140" height="1050" as="geometry">
            <mxRectangle x="160" y="20" width="40" height="460" as="alternateBounds" />
          </mxGeometry>
        </mxCell>
        <mxCell id="stpsXEzvuc9ygyJErnF_-9" style="edgeStyle=orthogonalEdgeStyle;rounded=0;orthogonalLoop=1;jettySize=auto;html=1;exitX=1;exitY=0.5;exitDx=0;exitDy=0;entryX=0;entryY=0.5;entryDx=0;entryDy=0;" edge="1" parent="jIQ_TxtXl38ZR4wvXbJK-1" source="stpsXEzvuc9ygyJErnF_-6" target="stpsXEzvuc9ygyJErnF_-8">
          <mxGeometry relative="1" as="geometry" />
        </mxCell>
        <mxCell id="stpsXEzvuc9ygyJErnF_-17" style="edgeStyle=orthogonalEdgeStyle;rounded=0;orthogonalLoop=1;jettySize=auto;html=1;exitX=0;exitY=0.5;exitDx=0;exitDy=0;entryX=1;entryY=0.5;entryDx=0;entryDy=0;" edge="1" parent="jIQ_TxtXl38ZR4wvXbJK-1" source="stpsXEzvuc9ygyJErnF_-14" target="stpsXEzvuc9ygyJErnF_-16">
          <mxGeometry relative="1" as="geometry" />
        </mxCell>
        <mxCell id="stpsXEzvuc9ygyJErnF_-52" value="" style="edgeStyle=orthogonalEdgeStyle;rounded=0;orthogonalLoop=1;jettySize=auto;html=1;" edge="1" parent="jIQ_TxtXl38ZR4wvXbJK-1" source="stpsXEzvuc9ygyJErnF_-24" target="stpsXEzvuc9ygyJErnF_-51">
          <mxGeometry relative="1" as="geometry" />
        </mxCell>
        <mxCell id="stpsXEzvuc9ygyJErnF_-62" value="" style="edgeStyle=orthogonalEdgeStyle;rounded=0;orthogonalLoop=1;jettySize=auto;html=1;" edge="1" parent="jIQ_TxtXl38ZR4wvXbJK-1" source="stpsXEzvuc9ygyJErnF_-55" target="stpsXEzvuc9ygyJErnF_-60">
          <mxGeometry relative="1" as="geometry" />
        </mxCell>
        <mxCell id="stpsXEzvuc9ygyJErnF_-70" style="edgeStyle=orthogonalEdgeStyle;rounded=0;orthogonalLoop=1;jettySize=auto;html=1;exitX=1;exitY=0.5;exitDx=0;exitDy=0;entryX=0;entryY=0.25;entryDx=0;entryDy=0;" edge="1" parent="jIQ_TxtXl38ZR4wvXbJK-1" source="stpsXEzvuc9ygyJErnF_-2" target="stpsXEzvuc9ygyJErnF_-5">
          <mxGeometry relative="1" as="geometry" />
        </mxCell>
        <mxCell id="stpsXEzvuc9ygyJErnF_-80" value="" style="edgeStyle=orthogonalEdgeStyle;rounded=0;orthogonalLoop=1;jettySize=auto;html=1;" edge="1" parent="jIQ_TxtXl38ZR4wvXbJK-1" source="stpsXEzvuc9ygyJErnF_-74" target="stpsXEzvuc9ygyJErnF_-79">
          <mxGeometry relative="1" as="geometry" />
        </mxCell>
      </root>
    </mxGraphModel>
  </diagram>
  <diagram id="NUmxROvcjzXoUAMA4pjh" name="Page-2">
    <mxGraphModel dx="588" dy="3872" grid="1" gridSize="10" guides="1" tooltips="1" connect="1" arrows="1" fold="1" page="1" pageScale="1" pageWidth="827" pageHeight="1169" math="0" shadow="0">
      <root>
        <mxCell id="0" />
        <mxCell id="1" parent="0" />
        <mxCell id="JuFaSFJ00Oj0XFXtzjpp-1" value="Proses Penyewaan Peralatan di BuildIT&amp;nbsp;" style="swimlane;html=1;childLayout=stackLayout;resizeParent=1;resizeParentMax=0;startSize=20;whiteSpace=wrap;gradientColor=none;" vertex="1" parent="1">
          <mxGeometry x="11" y="-3494" width="800" height="1070" as="geometry">
            <mxRectangle x="234" y="-3440" width="260" height="30" as="alternateBounds" />
          </mxGeometry>
        </mxCell>
        <mxCell id="JuFaSFJ00Oj0XFXtzjpp-2" value="Site Engineer" style="swimlane;html=1;startSize=20;labelBorderColor=none;labelBackgroundColor=none;textShadow=0;fontColor=default;" vertex="1" parent="JuFaSFJ00Oj0XFXtzjpp-1">
          <mxGeometry y="20" width="160" height="1050" as="geometry">
            <mxRectangle y="20" width="40" height="460" as="alternateBounds" />
          </mxGeometry>
        </mxCell>
        <mxCell id="JuFaSFJ00Oj0XFXtzjpp-16" value="Petugas Depot" style="swimlane;html=1;startSize=20;fontSize=11;" vertex="1" parent="JuFaSFJ00Oj0XFXtzjpp-1">
          <mxGeometry x="160" y="20" width="180" height="1050" as="geometry">
            <mxRectangle x="120" y="20" width="40" height="460" as="alternateBounds" />
          </mxGeometry>
        </mxCell>
        <mxCell id="JuFaSFJ00Oj0XFXtzjpp-29" value="Works Engineer" style="swimlane;html=1;startSize=20;" vertex="1" parent="JuFaSFJ00Oj0XFXtzjpp-1">
          <mxGeometry x="340" y="20" width="170" height="1050" as="geometry">
            <mxRectangle x="160" y="20" width="40" height="460" as="alternateBounds" />
          </mxGeometry>
        </mxCell>
        <mxCell id="JuFaSFJ00Oj0XFXtzjpp-43" value="Pemasok" style="swimlane;html=1;startSize=20;" vertex="1" parent="JuFaSFJ00Oj0XFXtzjpp-1">
          <mxGeometry x="510" y="20" width="150" height="1050" as="geometry">
            <mxRectangle x="160" y="20" width="40" height="460" as="alternateBounds" />
          </mxGeometry>
        </mxCell>
        <mxCell id="JuFaSFJ00Oj0XFXtzjpp-47" value="Dept. Keuangan" style="swimlane;html=1;startSize=20;" vertex="1" parent="JuFaSFJ00Oj0XFXtzjpp-1">
          <mxGeometry x="660" y="20" width="140" height="1050" as="geometry">
            <mxRectangle x="160" y="20" width="40" height="460" as="alternateBounds" />
          </mxGeometry>
        </mxCell>
      </root>
    </mxGraphModel>
  </diagram>
</mxfile>
